# xmcd
#
# Track frame offsets: 
#        150
#        16090
#        27918
#        44069
#        57687
#        70262
#        84489
#        97510
#        109161
#        125656
#        144724
#
# Disc length: 2104 seconds
#
# Revision: 0
# Processed by: cddbd v1.5.2PL0 Copyright (c) Steve Scherf et al.
# Submitted via: ExactAudioCopy v1.1
#
DISCID=9608360b
DTITLE=Daughters of Davis - British Soul
DYEAR=1900
DGENRE=Soul
TTITLE0=British Soul
TTITLE1=Get Back
TTITLE2=Is It For Me
TTITLE3=Honest Woman
TTITLE4=The Trade
TTITLE5=Bathsheba
TTITLE6=Can't We Get Away
TTITLE7=Catch Me if You Can
TTITLE8=Footprints
TTITLE9=The River
TTITLE10=Amazing Grace
EXTD=
EXTT0=
EXTT1=
EXTT2=
EXTT3=
EXTT4=
EXTT5=
EXTT6=
EXTT7=
EXTT8=
EXTT9=
EXTT10=
PLAYORDER=
